<?xml version="1.0" encoding="UTF-8" standalone="no"?>
<!-- Generator: Adobe Illustrator 23.0.1, SVG Export Plug-In . SVG Version: 6.00 Build 0)  -->

<svg
   xmlns:dc="http://purl.org/dc/elements/1.1/"
   xmlns:cc="http://creativecommons.org/ns#"
   xmlns:rdf="http://www.w3.org/1999/02/22-rdf-syntax-ns#"
   xmlns:svg="http://www.w3.org/2000/svg"
   xmlns="http://www.w3.org/2000/svg"
   xmlns:sodipodi="http://sodipodi.sourceforge.net/DTD/sodipodi-0.dtd"
   xmlns:inkscape="http://www.inkscape.org/namespaces/inkscape"
   version="1.1"
   id="Layer_1"
   x="0px"
   y="0px"
   viewBox="0 0 98 44"
   width="98"
   height="44"
   xml:space="preserve"
   sodipodi:docname="logo.svg"
   inkscape:version="0.92.4 (5da689c313, 2019-01-14)"><metadata
   id="metadata59"><rdf:RDF><cc:Work
       rdf:about=""><dc:format>image/svg+xml</dc:format><dc:type
         rdf:resource="http://purl.org/dc/dcmitype/StillImage" /><dc:title></dc:title></cc:Work></rdf:RDF></metadata><defs
   id="defs57" /><sodipodi:namedview
   pagecolor="#ffffff"
   bordercolor="#666666"
   borderopacity="1"
   objecttolerance="10"
   gridtolerance="10"
   guidetolerance="10"
   inkscape:pageopacity="0"
   inkscape:pageshadow="2"
   inkscape:window-width="1920"
   inkscape:window-height="1017"
   id="namedview55"
   showgrid="false"
   inkscape:zoom="2.057971"
   inkscape:cx="69"
   inkscape:cy="22"
   inkscape:window-x="-8"
   inkscape:window-y="-8"
   inkscape:window-maximized="1"
   inkscape:current-layer="Layer_1" />
<style
   type="text/css"
   id="style2">
	.st0{fill:#30b87b;}
</style>
<g
   id="g52"
   transform="translate(-18.542254)">
	<g
   id="g18">
		<path
   class="st0"
   d="m 20.88,40.61 c -0.06,0.24 -0.09,0.48 -0.09,0.71 0,0.23 0.04,0.43 0.12,0.61 0.08,0.18 0.19,0.32 0.35,0.43 0.16,0.11 0.36,0.16 0.6,0.16 0.16,0 0.32,-0.02 0.5,-0.06 0.17,-0.04 0.34,-0.09 0.51,-0.15 0.17,-0.06 0.34,-0.12 0.5,-0.19 0.17,-0.07 0.32,-0.14 0.46,-0.2 l -0.32,1.29 c -0.11,0.03 -0.23,0.07 -0.36,0.12 -0.13,0.05 -0.27,0.09 -0.43,0.13 -0.16,0.04 -0.35,0.08 -0.55,0.11 -0.2,0.03 -0.44,0.04 -0.71,0.04 -0.41,0 -0.77,-0.07 -1.07,-0.21 -0.3,-0.14 -0.53,-0.34 -0.7,-0.61 -0.17,-0.27 -0.27,-0.59 -0.3,-0.96 -0.03,-0.38 0,-0.8 0.12,-1.27 0.11,-0.45 0.27,-0.86 0.49,-1.23 0.22,-0.37 0.47,-0.68 0.77,-0.95 0.3,-0.26 0.63,-0.47 0.99,-0.61 0.37,-0.14 0.76,-0.22 1.17,-0.22 0.27,0 0.5,0.01 0.7,0.04 0.19,0.03 0.36,0.07 0.5,0.11 0.14,0.04 0.26,0.08 0.37,0.13 0.11,0.05 0.21,0.09 0.3,0.13 l -0.31,1.28 c -0.11,-0.06 -0.24,-0.12 -0.37,-0.2 -0.13,-0.07 -0.27,-0.13 -0.41,-0.19 -0.14,-0.06 -0.29,-0.1 -0.44,-0.14 -0.15,-0.04 -0.31,-0.06 -0.47,-0.06 -0.25,0 -0.47,0.06 -0.68,0.17 -0.21,0.11 -0.39,0.26 -0.56,0.44 -0.17,0.18 -0.31,0.39 -0.42,0.62 -0.12,0.25 -0.2,0.49 -0.26,0.73 z"
   id="path4"
   inkscape:connector-curvature="0"
   style="fill:#30b87b" />
		<path
   class="st0"
   d="m 35.54,41.39 c 0.07,-0.31 0.19,-0.61 0.35,-0.88 0.16,-0.27 0.35,-0.51 0.57,-0.71 0.22,-0.2 0.47,-0.35 0.75,-0.47 0.28,-0.12 0.58,-0.17 0.89,-0.17 0.32,0 0.59,0.06 0.81,0.17 0.22,0.11 0.4,0.27 0.53,0.47 0.13,0.2 0.2,0.44 0.23,0.71 0.02,0.27 0,0.57 -0.07,0.88 -0.08,0.32 -0.2,0.61 -0.36,0.89 -0.16,0.27 -0.35,0.51 -0.57,0.71 -0.22,0.2 -0.47,0.36 -0.76,0.47 -0.28,0.11 -0.58,0.17 -0.9,0.17 -0.32,0 -0.59,-0.06 -0.81,-0.17 -0.22,-0.12 -0.4,-0.27 -0.52,-0.47 -0.12,-0.2 -0.2,-0.43 -0.22,-0.7 -0.02,-0.29 0,-0.58 0.08,-0.9 z m 1.23,0.01 c -0.04,0.17 -0.07,0.34 -0.09,0.5 -0.01,0.16 -0.01,0.3 0.02,0.43 0.03,0.12 0.08,0.22 0.16,0.3 0.08,0.07 0.2,0.11 0.36,0.11 0.15,0 0.29,-0.04 0.41,-0.11 0.12,-0.07 0.23,-0.17 0.31,-0.3 0.09,-0.12 0.16,-0.27 0.23,-0.43 0.07,-0.16 0.11,-0.33 0.16,-0.5 0.04,-0.18 0.08,-0.35 0.09,-0.51 0.02,-0.16 0.01,-0.31 -0.02,-0.43 -0.03,-0.12 -0.09,-0.22 -0.17,-0.3 -0.08,-0.07 -0.2,-0.11 -0.36,-0.11 -0.15,0 -0.29,0.04 -0.41,0.11 -0.12,0.07 -0.22,0.17 -0.31,0.3 -0.09,0.12 -0.17,0.27 -0.23,0.43 -0.05,0.16 -0.1,0.33 -0.15,0.51 z"
   id="path6"
   inkscape:connector-curvature="0"
   style="fill:#30b87b" />
		<path
   class="st0"
   d="m 54.64,43.18 c -0.27,0.09 -0.52,0.17 -0.74,0.22 -0.22,0.06 -0.47,0.11 -0.75,0.15 -0.28,0.05 -0.57,0.07 -0.87,0.07 -0.39,0 -0.68,-0.06 -0.86,-0.17 C 51.23,43.34 51.11,43.2 51.05,43.03 50.99,42.87 50.97,42.69 51,42.5 c 0.02,-0.19 0.06,-0.36 0.1,-0.51 l 0.66,-2.71 h 1.26 l -0.55,2.27 c -0.03,0.15 -0.07,0.29 -0.1,0.43 -0.03,0.14 -0.04,0.26 -0.04,0.37 0.01,0.11 0.05,0.2 0.12,0.26 0.07,0.07 0.19,0.1 0.37,0.1 0.09,0 0.18,-0.01 0.27,-0.03 0.09,-0.02 0.16,-0.04 0.23,-0.07 0.08,-0.03 0.15,-0.06 0.22,-0.1 l 0.79,-3.24 h 1.26 z"
   id="path8"
   inkscape:connector-curvature="0"
   style="fill:#30b87b" />
		<path
   class="st0"
   d="m 67.54,39.58 c 0.16,-0.08 0.35,-0.15 0.57,-0.21 0.19,-0.05 0.41,-0.1 0.67,-0.15 0.26,-0.04 0.56,-0.07 0.89,-0.07 0.07,0 0.15,0 0.24,0.01 0.09,0.01 0.16,0.02 0.23,0.02 0.07,0.01 0.13,0.02 0.17,0.03 0.04,0.01 0.06,0.02 0.06,0.02 l -0.23,0.96 c -0.03,-0.02 -0.07,-0.03 -0.13,-0.05 -0.06,-0.02 -0.12,-0.03 -0.2,-0.04 -0.07,-0.01 -0.15,-0.02 -0.23,-0.03 -0.08,-0.01 -0.15,-0.01 -0.21,-0.01 -0.11,0 -0.21,0.01 -0.3,0.04 -0.09,0.02 -0.17,0.05 -0.24,0.08 -0.07,0.03 -0.12,0.05 -0.16,0.08 -0.04,0.03 -0.06,0.04 -0.06,0.04 l -0.78,3.2 H 66.6 Z"
   id="path10"
   inkscape:connector-curvature="0"
   style="fill:#30b87b" />
		<path
   class="st0"
   d="m 81.84,39.28 h 1.26 l -1.03,4.22 h -1.25 z m 1.38,-0.52 h -1.26 l 0.26,-1.06 h 1.26 z"
   id="path12"
   inkscape:connector-curvature="0"
   style="fill:#30b87b" />
		<path
   class="st0"
   d="m 95.5,41.74 c -0.02,0.11 -0.03,0.23 -0.02,0.35 0.01,0.12 0.04,0.22 0.1,0.32 0.06,0.09 0.15,0.17 0.26,0.24 0.11,0.06 0.26,0.09 0.45,0.09 0.12,0 0.26,-0.01 0.41,-0.04 0.15,-0.03 0.3,-0.07 0.45,-0.11 0.15,-0.04 0.3,-0.09 0.44,-0.14 0.14,-0.05 0.27,-0.1 0.38,-0.15 l -0.44,1.09 c 0,0.01 -0.06,0.03 -0.16,0.06 -0.1,0.03 -0.22,0.06 -0.38,0.09 -0.15,0.03 -0.32,0.06 -0.51,0.08 -0.19,0.02 -0.37,0.03 -0.55,0.03 -0.34,0 -0.62,-0.05 -0.86,-0.15 -0.24,-0.1 -0.43,-0.25 -0.57,-0.44 -0.14,-0.19 -0.23,-0.43 -0.26,-0.71 -0.03,-0.28 -0.01,-0.59 0.08,-0.95 0.09,-0.36 0.22,-0.68 0.4,-0.96 0.18,-0.28 0.38,-0.51 0.61,-0.69 0.23,-0.19 0.49,-0.33 0.76,-0.42 0.28,-0.09 0.55,-0.14 0.84,-0.14 0.27,0 0.51,0.05 0.71,0.14 0.2,0.09 0.37,0.22 0.49,0.38 0.13,0.16 0.21,0.35 0.27,0.56 0.05,0.21 0.07,0.44 0.04,0.69 -0.01,0.13 -0.04,0.26 -0.06,0.4 -0.03,0.14 -0.07,0.27 -0.12,0.41 H 95.5 Z m 1.77,-0.85 c 0.02,-0.12 0.03,-0.23 0.02,-0.33 -0.01,-0.1 -0.03,-0.19 -0.07,-0.27 -0.04,-0.08 -0.1,-0.14 -0.18,-0.18 -0.08,-0.04 -0.19,-0.07 -0.31,-0.07 -0.26,0 -0.47,0.08 -0.63,0.23 -0.16,0.15 -0.29,0.36 -0.39,0.62 z"
   id="path14"
   inkscape:connector-curvature="0"
   style="fill:#30b87b" />
		<path
   class="st0"
   d="m 110.55,39.58 c 0.16,-0.08 0.35,-0.15 0.57,-0.21 0.19,-0.05 0.41,-0.1 0.67,-0.15 0.26,-0.04 0.56,-0.07 0.89,-0.07 0.07,0 0.15,0 0.24,0.01 0.09,0.01 0.16,0.02 0.23,0.02 0.07,0.01 0.13,0.02 0.17,0.03 0.04,0.01 0.06,0.02 0.06,0.02 l -0.23,0.96 c -0.03,-0.02 -0.07,-0.03 -0.13,-0.05 -0.06,-0.02 -0.12,-0.03 -0.2,-0.04 -0.07,-0.01 -0.15,-0.02 -0.23,-0.03 -0.08,-0.01 -0.15,-0.01 -0.21,-0.01 -0.11,0 -0.21,0.01 -0.3,0.04 -0.09,0.02 -0.17,0.05 -0.24,0.08 -0.07,0.03 -0.12,0.05 -0.16,0.08 -0.04,0.03 -0.06,0.04 -0.06,0.04 l -0.78,3.2 h -1.25 z"
   id="path16"
   inkscape:connector-curvature="0"
   style="fill:#30b87b" />
	</g>
	<path
   class="st0"
   d="m 23,23.69 c 0.19,-0.78 0.53,-1.44 1.02,-1.98 0.49,-0.54 1.05,-0.98 1.67,-1.33 0.62,-0.34 1.28,-0.59 1.96,-0.75 0.69,-0.16 1.32,-0.24 1.91,-0.24 1.02,0 1.93,0.08 2.73,0.24 0.8,0.16 1.43,0.31 1.89,0.46 -0.07,0.34 -0.15,0.64 -0.22,0.89 -0.07,0.25 -0.14,0.53 -0.21,0.82 -0.07,0.29 -0.14,0.57 -0.21,0.81 -0.06,0.25 -0.14,0.53 -0.22,0.86 -0.18,-0.16 -0.42,-0.33 -0.74,-0.48 -0.32,-0.16 -0.66,-0.3 -1.04,-0.42 -0.37,-0.12 -0.76,-0.22 -1.17,-0.3 -0.41,-0.08 -0.79,-0.11 -1.15,-0.11 -0.2,0 -0.44,0 -0.72,0.01 -0.28,0.01 -0.56,0.05 -0.83,0.12 -0.27,0.08 -0.52,0.2 -0.75,0.37 -0.22,0.17 -0.37,0.41 -0.45,0.73 -0.07,0.29 -0.03,0.53 0.14,0.73 0.17,0.2 0.41,0.38 0.72,0.55 0.31,0.17 0.67,0.34 1.08,0.49 0.41,0.16 0.83,0.33 1.25,0.51 0.42,0.18 0.83,0.4 1.23,0.65 0.39,0.25 0.72,0.54 0.99,0.87 0.27,0.33 0.45,0.74 0.55,1.2 0.1,0.47 0.07,1.01 -0.07,1.64 -0.2,0.81 -0.52,1.5 -0.95,2.09 -0.44,0.58 -0.96,1.06 -1.58,1.44 -0.62,0.38 -1.31,0.65 -2.09,0.83 -0.77,0.18 -1.59,0.27 -2.45,0.27 -0.81,0 -1.51,-0.04 -2.1,-0.12 -0.59,-0.08 -1.08,-0.17 -1.48,-0.27 -0.39,-0.1 -0.69,-0.19 -0.88,-0.28 -0.19,-0.09 -0.3,-0.13 -0.31,-0.13 0.05,-0.19 0.1,-0.37 0.14,-0.53 0.04,-0.16 0.09,-0.35 0.14,-0.57 0.05,-0.21 0.11,-0.43 0.17,-0.65 0.14,-0.52 0.28,-1.11 0.43,-1.77 0.2,0.12 0.46,0.27 0.79,0.45 0.32,0.18 0.68,0.35 1.06,0.51 0.38,0.16 0.78,0.3 1.2,0.41 0.42,0.11 0.82,0.16 1.21,0.16 0.19,0 0.44,-0.01 0.77,-0.03 0.32,-0.02 0.65,-0.08 0.97,-0.18 0.32,-0.1 0.62,-0.25 0.9,-0.45 0.27,-0.21 0.45,-0.49 0.54,-0.84 0.09,-0.36 -0.03,-0.65 -0.35,-0.88 C 28.17,29.26 27.76,29.04 27.26,28.83 26.76,28.62 26.22,28.4 25.63,28.15 25.04,27.9 24.52,27.59 24.06,27.22 23.6,26.84 23.25,26.37 23.02,25.8 22.8,25.27 22.79,24.55 23,23.69 Z"
   id="path20"
   inkscape:connector-curvature="0"
   style="fill:#30b87b" />
	<path
   class="st0"
   d="m 40.21,25.97 h -2 l -1.18,4.89 c -0.09,0.33 -0.11,0.58 -0.06,0.74 0.05,0.16 0.15,0.28 0.31,0.34 0.16,0.06 0.36,0.09 0.63,0.08 0.26,-0.01 0.56,-0.01 0.9,-0.01 l -0.58,2.36 c -0.27,0.03 -0.59,0.05 -0.95,0.08 -0.36,0.03 -0.73,0.04 -1.09,0.04 -0.37,0 -0.71,-0.02 -1.03,-0.06 -0.32,-0.04 -0.57,-0.12 -0.76,-0.25 -0.17,-0.11 -0.32,-0.24 -0.45,-0.39 -0.12,-0.15 -0.22,-0.33 -0.29,-0.54 -0.07,-0.21 -0.1,-0.47 -0.09,-0.77 0.01,-0.3 0.06,-0.65 0.16,-1.05 l 1.33,-5.47 h -1.59 l 0.56,-2.26 h 1.59 l 0.79,-3.23 h 3.18 l -0.8,3.23 h 2 z"
   id="path22"
   inkscape:connector-curvature="0"
   style="fill:#30b87b" />
	<path
   class="st0"
   d="m 43.32,29.92 c -0.06,0.29 -0.08,0.58 -0.06,0.87 0.02,0.29 0.11,0.56 0.26,0.8 0.15,0.24 0.37,0.44 0.65,0.6 0.29,0.16 0.67,0.24 1.14,0.24 0.31,0 0.66,-0.04 1.04,-0.11 0.38,-0.08 0.76,-0.17 1.14,-0.28 0.38,-0.11 0.75,-0.23 1.11,-0.36 0.36,-0.13 0.69,-0.26 0.97,-0.38 l -1.12,2.75 c -0.01,0.03 -0.14,0.08 -0.39,0.14 -0.25,0.07 -0.57,0.14 -0.95,0.22 -0.39,0.08 -0.82,0.14 -1.29,0.2 -0.47,0.05 -0.94,0.08 -1.38,0.08 -0.85,0 -1.57,-0.13 -2.18,-0.39 -0.61,-0.26 -1.08,-0.63 -1.44,-1.12 -0.36,-0.49 -0.57,-1.08 -0.65,-1.79 -0.08,-0.71 -0.02,-1.5 0.2,-2.39 0.22,-0.92 0.56,-1.73 1.01,-2.42 0.45,-0.7 0.97,-1.28 1.55,-1.76 0.59,-0.47 1.23,-0.83 1.93,-1.07 0.7,-0.24 1.4,-0.36 2.11,-0.36 0.69,0 1.28,0.12 1.8,0.35 0.51,0.23 0.93,0.55 1.24,0.97 0.32,0.41 0.54,0.89 0.67,1.43 0.13,0.54 0.17,1.12 0.1,1.74 -0.04,0.33 -0.09,0.66 -0.16,1.01 -0.07,0.34 -0.17,0.69 -0.31,1.05 h -6.99 z m 4.47,-2.14 c 0.05,-0.3 0.07,-0.58 0.06,-0.84 -0.01,-0.26 -0.07,-0.49 -0.17,-0.68 -0.1,-0.19 -0.25,-0.34 -0.46,-0.45 -0.21,-0.11 -0.47,-0.16 -0.8,-0.16 -0.66,0 -1.19,0.19 -1.6,0.58 -0.41,0.38 -0.73,0.9 -0.98,1.56 h 3.95 z"
   id="path24"
   inkscape:connector-curvature="0"
   style="fill:#30b87b" />
	<path
   class="st0"
   d="m 60.36,34.38 h -3.18 l 0.09,-0.37 c -0.2,0.14 -0.41,0.25 -0.64,0.35 -0.2,0.08 -0.43,0.16 -0.69,0.23 -0.26,0.07 -0.54,0.1 -0.84,0.1 -0.96,0 -1.71,-0.17 -2.26,-0.5 -0.55,-0.34 -0.94,-0.77 -1.19,-1.29 -0.24,-0.53 -0.36,-1.11 -0.36,-1.74 0.01,-0.63 0.08,-1.25 0.21,-1.85 0.2,-0.85 0.47,-1.63 0.82,-2.35 0.35,-0.72 0.78,-1.34 1.29,-1.86 0.51,-0.52 1.11,-0.93 1.8,-1.23 0.69,-0.3 1.47,-0.45 2.36,-0.45 0.82,0 1.55,0.05 2.17,0.16 0.62,0.11 1.14,0.24 1.55,0.39 0.49,0.16 0.9,0.36 1.25,0.58 z m -5.67,-5.16 c -0.09,0.34 -0.15,0.68 -0.19,1.02 -0.04,0.34 -0.02,0.65 0.04,0.93 0.06,0.28 0.19,0.54 0.39,0.75 0.2,0.21 0.5,0.37 0.9,0.46 0.25,0.07 0.5,0.08 0.74,0.02 0.24,-0.06 0.45,-0.14 0.63,-0.25 0.21,-0.11 0.41,-0.25 0.6,-0.43 l 1.37,-5.59 c -0.14,-0.08 -0.27,-0.16 -0.41,-0.23 -0.14,-0.07 -0.29,-0.13 -0.45,-0.17 -0.16,-0.05 -0.34,-0.07 -0.54,-0.07 -0.49,0 -0.9,0.12 -1.24,0.35 -0.34,0.23 -0.64,0.52 -0.88,0.87 -0.24,0.35 -0.44,0.73 -0.59,1.15 -0.15,0.42 -0.28,0.82 -0.37,1.19 z"
   id="path26"
   inkscape:connector-curvature="0"
   style="fill:#30b87b" />
	<path
   class="st0"
   d="m 72.39,33.55 c -0.45,0.22 -0.96,0.41 -1.53,0.58 -0.49,0.15 -1.07,0.28 -1.75,0.4 -0.68,0.12 -1.43,0.17 -2.25,0.15 -0.89,0 -1.6,-0.15 -2.13,-0.46 -0.54,-0.31 -0.93,-0.72 -1.19,-1.23 -0.26,-0.51 -0.39,-1.11 -0.39,-1.79 -0.01,-0.68 0.08,-1.39 0.27,-2.15 0.16,-0.7 0.4,-1.39 0.72,-2.07 0.32,-0.68 0.73,-1.28 1.23,-1.82 0.5,-0.53 1.1,-0.97 1.81,-1.29 0.71,-0.33 1.55,-0.49 2.51,-0.49 0.3,0 0.56,0.02 0.8,0.07 0.23,0.05 0.43,0.11 0.59,0.17 0.19,0.07 0.36,0.14 0.51,0.23 l 1.01,-4.13 h 3.18 z m -5.82,-4.5 c -0.1,0.37 -0.17,0.74 -0.21,1.1 -0.04,0.36 -0.03,0.7 0.03,1.01 0.06,0.31 0.2,0.57 0.4,0.79 0.21,0.22 0.51,0.37 0.93,0.45 0.21,0.05 0.43,0.05 0.66,0 0.23,-0.05 0.43,-0.12 0.61,-0.19 0.21,-0.08 0.41,-0.18 0.6,-0.31 l 1.42,-5.77 C 70.87,26.05 70.74,25.97 70.6,25.9 70.47,25.83 70.33,25.78 70.17,25.74 70.01,25.7 69.84,25.67 69.66,25.66 c -0.5,0 -0.92,0.11 -1.27,0.34 -0.35,0.23 -0.65,0.51 -0.89,0.85 -0.24,0.34 -0.44,0.71 -0.59,1.1 -0.15,0.4 -0.26,0.76 -0.34,1.1 z"
   id="path28"
   inkscape:connector-curvature="0"
   style="fill:#30b87b" />
	<path
   class="st0"
   d="m 78.1,19.7 h 9.84 l -0.65,2.71 h -6.36 l -0.75,3.04 h 5.5 l -0.65,2.71 h -5.5 L 78,34.38 h -3.46 z"
   id="path30"
   inkscape:connector-curvature="0"
   style="fill:#30b87b" />
	<path
   class="st0"
   d="m 95.42,34.38 h -3.18 l 0.09,-0.37 c -0.2,0.14 -0.41,0.25 -0.64,0.35 -0.2,0.08 -0.43,0.16 -0.69,0.23 -0.26,0.07 -0.54,0.1 -0.84,0.1 -0.96,0 -1.71,-0.17 -2.26,-0.5 -0.55,-0.34 -0.94,-0.77 -1.19,-1.29 -0.24,-0.53 -0.36,-1.11 -0.36,-1.74 0.01,-0.63 0.08,-1.25 0.21,-1.85 0.2,-0.85 0.47,-1.63 0.82,-2.35 0.35,-0.72 0.78,-1.34 1.29,-1.86 0.51,-0.52 1.11,-0.93 1.8,-1.23 0.69,-0.3 1.47,-0.45 2.36,-0.45 0.82,0 1.55,0.05 2.17,0.16 0.62,0.11 1.14,0.24 1.55,0.39 0.49,0.16 0.9,0.36 1.25,0.58 z m -5.67,-5.16 c -0.09,0.34 -0.15,0.68 -0.19,1.02 -0.04,0.34 -0.02,0.65 0.04,0.93 0.06,0.29 0.19,0.54 0.39,0.75 0.2,0.21 0.5,0.37 0.9,0.46 0.25,0.07 0.5,0.08 0.74,0.02 0.24,-0.05 0.45,-0.14 0.63,-0.25 0.21,-0.11 0.41,-0.25 0.6,-0.43 l 1.37,-5.59 c -0.14,-0.08 -0.27,-0.16 -0.41,-0.23 -0.14,-0.07 -0.29,-0.13 -0.45,-0.17 -0.16,-0.05 -0.34,-0.07 -0.54,-0.07 -0.49,0 -0.9,0.12 -1.24,0.35 -0.34,0.23 -0.64,0.52 -0.88,0.87 -0.24,0.35 -0.44,0.73 -0.59,1.15 -0.15,0.42 -0.28,0.82 -0.37,1.19 z"
   id="path32"
   inkscape:connector-curvature="0"
   style="fill:#30b87b" />
	<path
   class="st0"
   d="m 99.26,26.57 c 0.14,-0.58 0.4,-1.07 0.8,-1.47 0.4,-0.4 0.85,-0.73 1.37,-0.99 0.51,-0.25 1.05,-0.44 1.63,-0.55 0.57,-0.12 1.1,-0.17 1.59,-0.17 0.86,0 1.62,0.1 2.26,0.31 0.65,0.21 1.17,0.37 1.57,0.49 -0.12,0.52 -0.23,0.94 -0.32,1.25 -0.09,0.32 -0.2,0.73 -0.34,1.23 -0.15,-0.12 -0.36,-0.24 -0.62,-0.36 -0.26,-0.12 -0.55,-0.22 -0.87,-0.32 -0.32,-0.1 -0.65,-0.17 -0.99,-0.24 -0.34,-0.06 -0.66,-0.09 -0.96,-0.09 -0.16,0 -0.34,0 -0.54,0.01 -0.2,0.01 -0.39,0.04 -0.57,0.09 -0.18,0.05 -0.34,0.14 -0.49,0.26 -0.14,0.12 -0.24,0.28 -0.29,0.48 -0.07,0.29 0.01,0.51 0.26,0.67 0.25,0.16 0.57,0.3 0.96,0.43 0.39,0.13 0.82,0.27 1.29,0.41 0.47,0.14 0.88,0.35 1.24,0.61 0.36,0.26 0.63,0.6 0.81,1.02 0.18,0.42 0.19,0.96 0.03,1.63 -0.15,0.6 -0.39,1.12 -0.73,1.55 -0.34,0.43 -0.75,0.79 -1.23,1.07 -0.49,0.28 -1.04,0.49 -1.66,0.62 -0.62,0.13 -1.3,0.2 -2.02,0.2 -0.67,0 -1.28,-0.04 -1.81,-0.12 -0.53,-0.08 -0.98,-0.17 -1.34,-0.26 -0.36,-0.09 -0.64,-0.17 -0.83,-0.26 -0.19,-0.08 -0.3,-0.12 -0.31,-0.12 0.04,-0.12 0.07,-0.26 0.11,-0.41 0.02,-0.12 0.06,-0.26 0.09,-0.42 0.04,-0.16 0.08,-0.33 0.13,-0.5 0.1,-0.38 0.21,-0.83 0.34,-1.34 0.16,0.1 0.38,0.21 0.65,0.34 0.27,0.13 0.58,0.25 0.93,0.36 0.35,0.11 0.71,0.21 1.09,0.3 0.39,0.09 0.79,0.14 1.2,0.15 0.16,0 0.35,0 0.56,-0.01 0.21,-0.01 0.42,-0.04 0.63,-0.1 0.21,-0.06 0.39,-0.15 0.54,-0.27 0.16,-0.12 0.26,-0.29 0.33,-0.52 0.07,-0.29 -0.01,-0.51 -0.25,-0.68 -0.24,-0.16 -0.56,-0.31 -0.95,-0.44 -0.39,-0.13 -0.82,-0.27 -1.27,-0.43 -0.46,-0.16 -0.86,-0.37 -1.23,-0.64 -0.36,-0.27 -0.63,-0.62 -0.8,-1.06 -0.17,-0.44 -0.17,-1.01 0.01,-1.71 z"
   id="path34"
   inkscape:connector-curvature="0"
   style="fill:#30b87b" />
	<path
   class="st0"
   d="m 115.44,25.97 h -2 l -1.18,4.89 c -0.09,0.33 -0.11,0.58 -0.06,0.74 0.05,0.16 0.15,0.28 0.31,0.34 0.16,0.06 0.36,0.09 0.63,0.08 0.26,-0.01 0.56,-0.01 0.9,-0.01 l -0.58,2.36 c -0.27,0.03 -0.59,0.05 -0.95,0.08 -0.36,0.03 -0.73,0.04 -1.09,0.04 -0.37,0 -0.71,-0.02 -1.03,-0.06 -0.32,-0.04 -0.57,-0.12 -0.76,-0.25 -0.18,-0.11 -0.32,-0.24 -0.45,-0.39 -0.13,-0.15 -0.22,-0.33 -0.29,-0.54 -0.07,-0.21 -0.1,-0.47 -0.09,-0.77 0.01,-0.3 0.06,-0.65 0.16,-1.05 l 1.33,-5.47 h -1.59 l 0.56,-2.26 h 1.59 l 0.79,-3.23 h 3.18 l -0.8,3.23 h 2 z"
   id="path36"
   inkscape:connector-curvature="0"
   style="fill:#30b87b" />
	<g
   id="g50">
		<path
   class="st0"
   d="m 104.3,4.67 c 1.41,0 2.55,-0.96 2.55,-2.15 0,-1.19 -1.14,-2.15 -2.55,-2.15 -1.41,0 -2.55,0.96 -2.55,2.15 0,1.19 1.14,2.15 2.55,2.15 z"
   id="path38"
   inkscape:connector-curvature="0"
   style="fill:#30b87b" />
		<path
   class="st0"
   d="m 102.47,12.9 c 0,0 1.63,-1.03 -0.82,-2.11 -2.45,-1.08 -7.91,-2.06 -8.17,-2.46 0,0 -0.69,-0.36 -0.3,-0.65 0,0 1.71,-1.74 3.99,-1.53 0,0 0.71,0.09 0.25,1.14 0,0 -0.35,1.25 3.57,2.17 3.92,0.91 9.22,-3.54 7.61,-3.47 -1.61,0.07 -10.55,3.18 -7.64,-1.11 0,0 2.07,-1.8 -1.08,-2.38 -3.15,-0.58 -6.92,-0.42 -9.64,2.77 -2.72,3.2 -1.35,4.89 3.15,6.63 4.5,1.74 7.55,-1.51 4.69,2.01 -1.51,1.86 -2.51,3.25 -2.85,4.53 h 2.28 c 0.96,-1.77 3,-3.71 4.96,-5.54 z"
   id="path40"
   inkscape:connector-curvature="0"
   style="fill:#30b87b" />
		<path
   class="st0"
   d="m 94.46,17.84 c 2.02,-7.29 -9.09,-6.66 -9.09,-6.66 0,0 -4.66,1.37 -2.21,1.32 0,0 6.39,-1.14 7.81,1.4 0.8,1.43 1.21,2.84 0.77,4.53 h 2.54 c 0.06,-0.19 0.12,-0.38 0.18,-0.59 z"
   id="path42"
   inkscape:connector-curvature="0"
   style="fill:#30b87b" />
		<path
   class="st0"
   d="m 80.68,18.3 c 0,0 1.39,-2.73 4.98,-5.11 0,0 1.19,-0.81 -0.58,-0.48 -1.6,0.3 -4.53,1.54 -6.45,5.72 h 1.99 c 0.02,-0.04 0.04,-0.08 0.06,-0.13 z"
   id="path44"
   inkscape:connector-curvature="0"
   style="fill:#30b87b" />
		<path
   class="st0"
   d="m 106.32,13.12 c 1.52,-0.63 0,-0.6 0,-0.6 -3.84,0.65 -5.8,3.16 -7.01,5.91 h 1.81 c 1.48,-3.03 5.2,-5.31 5.2,-5.31 z"
   id="path46"
   inkscape:connector-curvature="0"
   style="fill:#30b87b" />
		<path
   class="st0"
   d="m 115.23,17.31 c 0.26,-1.94 -1.22,-7.22 -8.37,-5.95 -7.15,1.27 -0.96,1.09 0.19,0.85 1.15,-0.25 7.12,0.39 5.83,5.74 -0.04,0.17 -0.08,0.33 -0.13,0.49 h 2.27 c 0.11,-0.44 0.17,-0.82 0.21,-1.13 z"
   id="path48"
   inkscape:connector-curvature="0"
   style="fill:#30b87b" />
	</g>
</g>
</svg>